<?xml version="1.0" encoding="UTF-8"?><svg id="Layer_2" xmlns="http://www.w3.org/2000/svg" viewBox="0 0 160 160" class="icon icon-account"><defs></defs><g id="Layer_1-2"><g id="_4ttitP.tif"><path class="cls-1" d="m159.31,79.43c-.29,43.13-33.44,79.66-79.74,79.65C34.17,159.07.12,123.63,0,79.58-.12,36.16,33.85.12,79.54,0c44.59-.11,79.32,35,79.77,79.43Zm-32.73,44.38c10.42-7.95,22.47-33.15,16.18-59.4-6.35-26.51-29.81-49.24-62.73-49.59-29.78-.31-55.57,19.49-63.23,48.33-6.55,24.68,3.81,50.85,16.24,60.85.52-.97,1.03-1.91,1.52-2.86,1.34-2.58,2.78-5.08,4.69-7.32,7.43-8.66,16.83-13.23,28.2-13.92,9.48-.58,19.03-1.02,28.39.39,12.8,1.93,22.51,8.93,28.83,20.37.6,1.08.98,2.28,1.9,3.16Zm-46.26-9.28c-3.96,0-7.12-.04-10.28,0-11.89.18-21.41,7.29-24.23,17.84-.47,1.77.01,2.5,1.44,3.35,7.33,4.35,15.29,6.83,23.67,7.99,14.67,2.03,28.41-.83,41.26-8.12,1-.57,2.24-.96,1.71-2.56-2.87-8.67-8.26-14.88-17.25-17.48-5.61-1.62-11.4-.87-16.32-1.04Z"/><path class="cls-1" d="m79.64,34.93c14.93,0,27.46,12.22,27.25,27.08-.22,15.3-11.59,27.32-27.3,27.27-15.56-.04-27.25-11.68-27.2-27.33.06-16.04,12.36-26.6,27.25-27.03Zm0,14.74c-6.79-.01-12.61,5.87-12.67,12.8-.05,6.07,6.22,12.11,12.61,12.14,6.35.03,12.81-6.05,12.63-12.09-.25-8.33-6.19-12.44-12.57-12.85Z"/></g></g></svg>