<?xml version="1.0" ?>
<svg version="1.1" viewBox="0 0 24 24" xml:space="preserve" xmlns="http://www.w3.org/2000/svg" xmlns:xlink="http://www.w3.org/1999/xlink" class="icon icon-hamburger">
  <g id="grid_system"/>
  <g id="_icons">
    <path fill="currentColor" stroke-linecap="butt" d="M5,7h14c0.6,0,1-0.4,1-1s-0.4-1-1-1H5C4.4,5,4,5.4,4,6S4.4,7,5,7z"/>
    <path fill="currentColor" stroke-linecap="butt" d="M5,13h14c0.6,0,1-0.4,1-1s-0.4-1-1-1H5c-0.6,0-1,0.4-1,1S4.4,13,5,13z"/>
    <path fill="currentColor" stroke-linecap="butt" d="M5,19h14c0.6,0,1-0.4,1-1s-0.4-1-1-1H5c-0.6,0-1,0.4-1,1S4.4,19,5,19z"/>
  </g>
</svg>
