<?xml version="1.0" encoding="UTF-8"?><svg id="Layer_2" xmlns="http://www.w3.org/2000/svg" class="icon icon-cart-custom" viewBox="0 0 180 160"><defs><style>.cls-1{fill:#36534d;}</style></defs><g id="Layer_1-2"><g id="t0Yxzj.tif"><path class="cls-1" d="m52.98,89.76c.52,2.89.94,5.34,1.4,7.78.95,5.07,3.57,7.29,8.77,7.32,7.65.04,15.3,0,22.95,0,21.37,0,42.75,0,64.12,0,2.21,0,4.37.24,6.17,1.57,2.34,1.73,3.24,4.18,2.79,7.04-.45,2.87-2.1,4.85-4.91,5.71-1.27.39-2.58.54-3.93.54-29.02-.02-58.05-.07-87.07.01-8.59.02-15.33-3.24-20.08-10.39-2.49-3.75-3.24-8.14-4.06-12.47-5.03-26.25-10.07-52.5-15.05-78.77-.46-2.41-1.54-3.36-4.03-3.26-4.07.17-8.15.16-12.22.01C1.56,14.65-1.87,8.86,1.06,3.7,2.43,1.27,4.74.19,7.28.16c5.56-.05,11.13-.48,16.68.31,5.17.73,9.24,3.19,11.94,7.65.96,1.58,2.06,1.98,3.82,1.97,41.33-.05,82.66-.04,124-.04,7.21,0,11.86,3.21,13.59,9.38.69,2.46.53,4.93-.13,7.38-4.08,15.15-8.09,30.33-12.26,45.45-3.07,11.13-11.54,17.48-23.13,17.49-28.53.02-57.05,0-85.58,0h-3.24ZM162.34,25H40.68c.04.43.04.75.1,1.05,3,15.47,6.04,30.94,8.95,46.43.37,1.97,1.09,2.5,3.05,2.49,29.52-.06,59.05-.04,88.57-.05,5.52,0,7.82-1.74,9.31-7.09,1.34-4.8,2.63-9.61,3.95-14.42,2.55-9.37,5.11-18.74,7.74-28.42Z"/><path class="cls-1" d="m39.92,144.6c-.1-8.4,6.54-14.68,14.75-14.63,8.61.05,14.86,6.39,14.8,14.88-.06,8.42-6.32,14.59-14.79,14.63-8.3.04-14.97-6.34-14.76-14.88Z"/><path class="cls-1" d="m129.77,144.42c.19-8.18,6.91-14.82,14.91-14.55,9.6.32,14.69,8.03,14.6,15.16-.1,8.08-7.16,14.85-14.95,14.57-8.36-.3-14.74-6.95-14.55-15.17Z"/></g></g></svg>